<?xml version="1.0" encoding="UTF-8"?>
<svg xmlns="http://www.w3.org/2000/svg" xmlns:xlink="http://www.w3.org/1999/xlink" width="24pt" height="24pt" viewBox="0 0 24 24" version="1.1">
<g id="surface1">
<path style=" stroke:none;fill-rule:nonzero;fill:rgb(0%,0%,0%);fill-opacity:1;" d="M 3.46875 1.21875 C 1.816406 1.21875 0.738281 2.304688 0.738281 3.726562 C 0.738281 5.121094 1.785156 6.238281 3.40625 6.238281 L 3.4375 6.238281 C 5.121094 6.238281 6.167969 5.121094 6.167969 3.726562 C 6.136719 2.304688 5.121094 1.21875 3.46875 1.21875 Z M 3.46875 1.21875 "/>
<path style=" stroke:none;fill-rule:nonzero;fill:rgb(0%,0%,0%);fill-opacity:1;" d="M 1.023438 8.21875 L 5.851562 8.21875 L 5.851562 22.738281 L 1.023438 22.738281 Z M 1.023438 8.21875 "/>
<path style=" stroke:none;fill-rule:nonzero;fill:rgb(0%,0%,0%);fill-opacity:1;" d="M 17.695312 7.878906 C 15.09375 7.878906 13.347656 10.324219 13.347656 10.324219 L 13.347656 8.21875 L 8.519531 8.21875 L 8.519531 22.738281 L 13.347656 22.738281 L 13.347656 14.628906 C 13.347656 14.195312 13.378906 13.761719 13.503906 13.453125 C 13.855469 12.585938 14.648438 11.6875 15.980469 11.6875 C 17.726562 11.6875 18.425781 13.019531 18.425781 14.972656 L 18.425781 22.738281 L 23.25 22.738281 L 23.25 14.414062 C 23.25 9.953125 20.871094 7.878906 17.695312 7.878906 Z M 17.695312 7.878906 "/>
</g>
</svg>
