<?xml version="1.0" encoding="UTF-8"?>
<svg xmlns="http://www.w3.org/2000/svg" xmlns:xlink="http://www.w3.org/1999/xlink" width="24pt" height="24pt" viewBox="0 0 24 24" version="1.1">
<g id="surface1">
<path style=" stroke:none;fill-rule:evenodd;fill:rgb(0%,0%,0%);fill-opacity:1;" d="M 19.96875 4.011719 C 17.863281 1.902344 15.0625 0.738281 12.078125 0.738281 C 5.929688 0.738281 0.925781 5.742188 0.921875 11.894531 C 0.921875 13.859375 1.4375 15.78125 2.414062 17.472656 L 0.828125 23.25 L 6.742188 21.699219 C 8.375 22.589844 10.207031 23.058594 12.074219 23.058594 L 12.078125 23.058594 C 18.226562 23.058594 23.234375 18.054688 23.234375 11.902344 C 23.234375 8.921875 22.078125 6.117188 19.96875 4.011719 Z M 12.078125 21.175781 L 12.074219 21.175781 C 10.410156 21.171875 8.78125 20.726562 7.355469 19.882812 L 7.015625 19.679688 L 3.507812 20.601562 L 4.445312 17.179688 L 4.222656 16.828125 C 3.296875 15.351562 2.804688 13.644531 2.808594 11.894531 C 2.808594 6.78125 6.96875 2.621094 12.082031 2.621094 C 14.558594 2.625 16.886719 3.589844 18.636719 5.34375 C 20.390625 7.09375 21.351562 9.425781 21.351562 11.902344 C 21.347656 17.015625 17.191406 21.175781 12.078125 21.175781 Z M 17.164062 14.230469 C 16.886719 14.089844 15.515625 13.417969 15.261719 13.324219 C 15.003906 13.230469 14.820312 13.183594 14.632812 13.460938 C 14.449219 13.742188 13.914062 14.371094 13.75 14.554688 C 13.589844 14.742188 13.425781 14.765625 13.148438 14.625 C 12.867188 14.484375 11.96875 14.191406 10.90625 13.242188 C 10.078125 12.503906 9.515625 11.589844 9.355469 11.3125 C 9.191406 11.03125 9.351562 10.894531 9.476562 10.742188 C 9.777344 10.367188 10.082031 9.972656 10.171875 9.789062 C 10.265625 9.601562 10.21875 9.441406 10.148438 9.300781 C 10.082031 9.160156 9.523438 7.789062 9.289062 7.230469 C 9.066406 6.6875 8.835938 6.761719 8.664062 6.75 C 8.5 6.742188 8.316406 6.742188 8.128906 6.742188 C 7.945312 6.742188 7.640625 6.8125 7.386719 7.089844 C 7.128906 7.371094 6.410156 8.042969 6.410156 9.417969 C 6.410156 10.789062 7.410156 12.113281 7.546875 12.300781 C 7.6875 12.484375 9.515625 15.300781 12.3125 16.507812 C 12.976562 16.796875 13.496094 16.96875 13.898438 17.097656 C 14.566406 17.308594 15.175781 17.277344 15.65625 17.207031 C 16.191406 17.125 17.304688 16.53125 17.535156 15.882812 C 17.769531 15.230469 17.769531 14.671875 17.699219 14.554688 C 17.628906 14.4375 17.445312 14.371094 17.164062 14.230469 Z M 17.164062 14.230469 "/>
</g>
</svg>
