<?xml version="1.0" encoding="UTF-8"?>
<svg xmlns="http://www.w3.org/2000/svg" xmlns:xlink="http://www.w3.org/1999/xlink" width="24pt" height="24pt" viewBox="0 0 24 24" version="1.1">
<g id="surface1">
<path style=" stroke:none;fill-rule:nonzero;fill:rgb(0%,0%,0%);fill-opacity:1;" d="M 22.789062 6.378906 C 22.527344 5.414062 21.769531 4.65625 20.804688 4.394531 C 19.042969 3.914062 11.996094 3.914062 11.996094 3.914062 C 11.996094 3.914062 4.949219 3.914062 3.1875 4.378906 C 2.242188 4.636719 1.460938 5.414062 1.203125 6.378906 C 0.738281 8.140625 0.738281 11.792969 0.738281 11.792969 C 0.738281 11.792969 0.738281 15.464844 1.203125 17.210938 C 1.460938 18.175781 2.222656 18.933594 3.1875 19.195312 C 4.96875 19.675781 11.996094 19.675781 11.996094 19.675781 C 11.996094 19.675781 19.042969 19.675781 20.804688 19.210938 C 21.769531 18.953125 22.527344 18.191406 22.789062 17.226562 C 23.25 15.464844 23.25 11.8125 23.25 11.8125 C 23.25 11.8125 23.269531 8.140625 22.789062 6.378906 Z M 9.75 15.171875 L 9.75 8.417969 L 15.613281 11.792969 Z M 9.75 15.171875 "/>
</g>
</svg>
